<?xml version="1.0" encoding="UTF-8" standalone="no"?>
<!-- Created with Inkscape (http://www.inkscape.org/) -->

<svg
   xmlns:dc="http://purl.org/dc/elements/1.1/"
   xmlns:cc="http://creativecommons.org/ns#"
   xmlns:rdf="http://www.w3.org/1999/02/22-rdf-syntax-ns#"
   xmlns:svg="http://www.w3.org/2000/svg"
   xmlns="http://www.w3.org/2000/svg"
   xmlns:xlink="http://www.w3.org/1999/xlink"
   xmlns:sodipodi="http://sodipodi.sourceforge.net/DTD/sodipodi-0.dtd"
   xmlns:inkscape="http://www.inkscape.org/namespaces/inkscape"
   width="1024"
   height="1024"
   viewBox="0 0 1024 1024"
   id="svg2"
   version="1.1"
   inkscape:version="0.91 r13725"
   sodipodi:docname="channel_logo_placeholder.svg"
   inkscape:export-filename="/home/nico/Downloads/channel_logo_placeholder.png"
   inkscape:export-xdpi="90"
   inkscape:export-ydpi="90">
  <defs
     id="defs4">
    <linearGradient
       id="linearGradient4241">
      <stop
         id="stop4251"
         offset="0"
         style="stop-color:#b5b5b5;stop-opacity:1;" />
      <stop
         style="stop-color:#b5b5b5;stop-opacity:1;"
         offset="0.55000001"
         id="stop4253" />
      <stop
         id="stop4255"
         offset="0.75"
         style="stop-color:#f3f3f3;stop-opacity:1;" />
      <stop
         style="stop-color:#f3f3f3;stop-opacity:1;"
         offset="1"
         id="stop4223" />
    </linearGradient>
    <linearGradient
       inkscape:collect="always"
       xlink:href="#linearGradient4241"
       id="linearGradient4177"
       x1="1024"
       y1="1052.3622"
       x2="0"
       y2="28.36216"
       gradientUnits="userSpaceOnUse" />
  </defs>
  <sodipodi:namedview
     id="base"
     pagecolor="#ffffff"
     bordercolor="#666666"
     borderopacity="1.0"
     inkscape:pageopacity="0"
     inkscape:pageshadow="2"
     inkscape:zoom="0.7071068"
     inkscape:cx="375.81671"
     inkscape:cy="524.11584"
     inkscape:document-units="px"
     inkscape:current-layer="layer1"
     showgrid="true"
     units="px"
     inkscape:showpageshadow="true"
     inkscape:window-width="1920"
     inkscape:window-height="1025"
     inkscape:window-x="0"
     inkscape:window-y="25"
     inkscape:window-maximized="1"
     showguides="true"
     inkscape:guide-bbox="true">
    <inkscape:grid
       type="xygrid"
       id="grid3336"
       empspacing="128"
       snapvisiblegridlinesonly="true" />
  </sodipodi:namedview>
  <metadata
     id="metadata7">
    <rdf:RDF>
      <cc:Work
         rdf:about="">
        <dc:format>image/svg+xml</dc:format>
        <dc:type
           rdf:resource="http://purl.org/dc/dcmitype/StillImage" />
        <dc:title></dc:title>
      </cc:Work>
    </rdf:RDF>
  </metadata>
  <g
     inkscape:label="Layer 1"
     inkscape:groupmode="layer"
     id="layer1"
     transform="translate(0,-28.36216)">
    <rect
       style="opacity:1;fill:url(#linearGradient4177);fill-opacity:1;fill-rule:evenodd;stroke:none;stroke-width:0.1;stroke-miterlimit:4;stroke-dasharray:none;stroke-opacity:1"
       id="rect4175"
       width="1024"
       height="1024"
       x="0"
       y="28.36216" />
    <g
       transform="matrix(1.6422282,0,0,1.6422282,140.03449,168.39612)"
       id="g3">
      <g
         id="g5">
        <path
           style="fill:#070707"
           inkscape:connector-curvature="0"
           d="m 420.135,110.203 -140.044,0 49.728,-81.594 c 4.312,-7.074 2.072,-16.304 -5.002,-20.615 -7.073,-4.313 -16.304,-2.072 -20.615,5.002 l -59.243,97.207 -36.916,0 L 148.8,12.996 c -4.311,-7.072 -13.541,-9.312 -20.615,-5.002 -7.074,4.312 -9.314,13.541 -5.002,20.615 l 49.728,81.594 -140.046,0 C 14.743,110.203 0,124.946 0,143.067 l 0,271.271 c 0,18.121 14.743,32.864 32.865,32.864 l 387.271,0 c 18.122,0 32.865,-14.743 32.865,-32.864 l 0,-271.271 C 453,124.946 438.257,110.203 420.135,110.203 Z M 317.677,374.912 c 0,9.866 -7.998,17.865 -17.865,17.865 l -228.624,0 c -9.866,-10e-4 -17.864,-7.999 -17.864,-17.865 l 0,-192.418 c 0,-9.866 7.998,-17.865 17.865,-17.865 l 228.623,0 c 9.866,0 17.865,7.999 17.865,17.865 l 0,192.418 z m 66.115,-5.709 c -17.093,0 -31,-13.907 -31,-31 0,-17.094 13.907,-31 31,-31 17.093,0 31,13.906 31,31 0,17.094 -13.907,31 -31,31 z m 0,-119 c -17.093,0 -31,-13.906 -31,-31 0,-17.094 13.907,-31 31,-31 17.093,0 31,13.906 31,31 0,17.094 -13.907,31 -31,31 z"
           id="path7" />
      </g>
    </g>
  </g>
</svg>
