<?xml version="1.0" encoding="UTF-8" standalone="no"?>
<!-- Created with Inkscape (http://www.inkscape.org/) -->

<svg
   xmlns:dc="http://purl.org/dc/elements/1.1/"
   xmlns:cc="http://creativecommons.org/ns#"
   xmlns:rdf="http://www.w3.org/1999/02/22-rdf-syntax-ns#"
   xmlns:svg="http://www.w3.org/2000/svg"
   xmlns="http://www.w3.org/2000/svg"
   xmlns:xlink="http://www.w3.org/1999/xlink"
   xmlns:sodipodi="http://sodipodi.sourceforge.net/DTD/sodipodi-0.dtd"
   xmlns:inkscape="http://www.inkscape.org/namespaces/inkscape"
   width="1024"
   height="1024"
   viewBox="0 0 1024 1024"
   id="svg2"
   version="1.1"
   inkscape:version="0.91 r13725"
   sodipodi:docname="albumart_placeholder.svg"
   inkscape:export-filename="/home/nico/Downloads/albumart_placeholder.png"
   inkscape:export-xdpi="90"
   inkscape:export-ydpi="90">
  <defs
     id="defs4">
    <linearGradient
       id="linearGradient4241">
      <stop
         id="stop4251"
         offset="0"
         style="stop-color:#b5b5b5;stop-opacity:1;" />
      <stop
         style="stop-color:#b5b5b5;stop-opacity:1;"
         offset="0.55000001"
         id="stop4253" />
      <stop
         id="stop4255"
         offset="0.75"
         style="stop-color:#f3f3f3;stop-opacity:1;" />
      <stop
         style="stop-color:#f3f3f3;stop-opacity:1;"
         offset="1"
         id="stop4223" />
    </linearGradient>
    <linearGradient
       inkscape:collect="always"
       xlink:href="#linearGradient4241"
       id="linearGradient4177"
       x1="1024"
       y1="1052.3622"
       x2="0"
       y2="28.36216"
       gradientUnits="userSpaceOnUse" />
  </defs>
  <sodipodi:namedview
     id="base"
     pagecolor="#ffffff"
     bordercolor="#666666"
     borderopacity="1.0"
     inkscape:pageopacity="0"
     inkscape:pageshadow="2"
     inkscape:zoom="0.7071068"
     inkscape:cx="234.39536"
     inkscape:cy="560.88539"
     inkscape:document-units="px"
     inkscape:current-layer="layer1"
     showgrid="true"
     units="px"
     inkscape:showpageshadow="true"
     inkscape:window-width="1920"
     inkscape:window-height="1025"
     inkscape:window-x="0"
     inkscape:window-y="25"
     inkscape:window-maximized="1"
     showguides="true"
     inkscape:guide-bbox="true">
    <inkscape:grid
       type="xygrid"
       id="grid3336"
       empspacing="128"
       snapvisiblegridlinesonly="true" />
  </sodipodi:namedview>
  <metadata
     id="metadata7">
    <rdf:RDF>
      <cc:Work
         rdf:about="">
        <dc:format>image/svg+xml</dc:format>
        <dc:type
           rdf:resource="http://purl.org/dc/dcmitype/StillImage" />
        <dc:title></dc:title>
      </cc:Work>
    </rdf:RDF>
  </metadata>
  <g
     inkscape:label="Layer 1"
     inkscape:groupmode="layer"
     id="layer1"
     transform="translate(0,-28.36216)">
    <rect
       style="opacity:1;fill:url(#linearGradient4177);fill-opacity:1;fill-rule:evenodd;stroke:none;stroke-width:0.1;stroke-miterlimit:4;stroke-dasharray:none;stroke-opacity:1"
       id="rect4175"
       width="1024"
       height="1024"
       x="0"
       y="28.36216" />
    <path
       d="m 820.47296,740.3193 0,-0.15188 c 0,-0.0681 -0.005,-0.13617 -0.005,-0.19899 l -1.95342,-534.59465 -0.0261,0 -0.0314,-8.72489 -411.99611,51.23897 0.70176,64.02253 1.95863,411.00108 c -21.50319,-20.47151 -53.06668,-33.41742 -88.26991,-33.41742 -64.79761,0 -117.32488,43.78671 -117.32488,97.80655 0,54.01459 52.52727,96.77482 117.32488,96.77482 64.21629,0 116.34557,-39.78562 117.27252,-97.39281 l 0.0471,0 0,0.76984 0,-0.15186 c 0,-0.0681 -0.005,-0.1362 -0.005,-0.19902 l -1.74916,-478.65286 353.03777,-45.95481 1.96913,413.2844 c -21.50318,-20.47149 -53.0667,-33.41739 -88.26993,-33.41739 -64.79759,0 -117.32488,43.78669 -117.32488,97.80651 0,54.01461 52.52729,96.77485 117.32488,96.77485 64.21632,0 116.34557,-39.78562 117.27253,-97.39279 l 0.0471,0 0,0.76982 z"
       style="fill:#070707;fill-opacity:1;fill-rule:nonzero;stroke:none"
       id="path230"
       inkscape:connector-curvature="0" />
  </g>
</svg>
