<?xml version="1.0" encoding="UTF-8" standalone="no"?>
<!-- Created with Inkscape (http://www.inkscape.org/) -->

<svg
   xmlns:dc="http://purl.org/dc/elements/1.1/"
   xmlns:cc="http://creativecommons.org/ns#"
   xmlns:rdf="http://www.w3.org/1999/02/22-rdf-syntax-ns#"
   xmlns:svg="http://www.w3.org/2000/svg"
   xmlns="http://www.w3.org/2000/svg"
   xmlns:xlink="http://www.w3.org/1999/xlink"
   xmlns:sodipodi="http://sodipodi.sourceforge.net/DTD/sodipodi-0.dtd"
   xmlns:inkscape="http://www.inkscape.org/namespaces/inkscape"
   width="1024"
   height="1024"
   viewBox="0 0 1024 1024"
   id="svg2"
   version="1.1"
   inkscape:version="0.91 r13725"
   sodipodi:docname="video_cover_placeholder.svg"
   inkscape:export-filename="/home/nico/Downloads/video_cover_placeholder.png"
   inkscape:export-xdpi="90"
   inkscape:export-ydpi="90">
  <defs
     id="defs4">
    <linearGradient
       id="linearGradient4241">
      <stop
         id="stop4251"
         offset="0"
         style="stop-color:#b5b5b5;stop-opacity:1;" />
      <stop
         style="stop-color:#b5b5b5;stop-opacity:1;"
         offset="0.55000001"
         id="stop4253" />
      <stop
         id="stop4255"
         offset="0.75"
         style="stop-color:#f3f3f3;stop-opacity:1;" />
      <stop
         style="stop-color:#f3f3f3;stop-opacity:1;"
         offset="1"
         id="stop4223" />
    </linearGradient>
    <linearGradient
       inkscape:collect="always"
       xlink:href="#linearGradient4241"
       id="linearGradient4177"
       x1="1024"
       y1="1052.3622"
       x2="0"
       y2="28.36216"
       gradientUnits="userSpaceOnUse" />
  </defs>
  <sodipodi:namedview
     id="base"
     pagecolor="#ffffff"
     bordercolor="#666666"
     borderopacity="1.0"
     inkscape:pageopacity="0"
     inkscape:pageshadow="2"
     inkscape:zoom="0.7071068"
     inkscape:cx="241.25585"
     inkscape:cy="584.36123"
     inkscape:document-units="px"
     inkscape:current-layer="layer1"
     showgrid="true"
     units="px"
     inkscape:showpageshadow="true"
     inkscape:window-width="1920"
     inkscape:window-height="1025"
     inkscape:window-x="0"
     inkscape:window-y="25"
     inkscape:window-maximized="1"
     showguides="true"
     inkscape:guide-bbox="true">
    <inkscape:grid
       type="xygrid"
       id="grid3336"
       empspacing="128"
       snapvisiblegridlinesonly="true" />
  </sodipodi:namedview>
  <metadata
     id="metadata7">
    <rdf:RDF>
      <cc:Work
         rdf:about="">
        <dc:format>image/svg+xml</dc:format>
        <dc:type
           rdf:resource="http://purl.org/dc/dcmitype/StillImage" />
        <dc:title></dc:title>
      </cc:Work>
    </rdf:RDF>
  </metadata>
  <g
     inkscape:label="Layer 1"
     inkscape:groupmode="layer"
     id="layer1"
     transform="translate(0,-28.36216)">
    <rect
       style="opacity:1;fill:url(#linearGradient4177);fill-opacity:1;fill-rule:evenodd;stroke:none;stroke-width:0.1;stroke-miterlimit:4;stroke-dasharray:none;stroke-opacity:1"
       id="rect4175"
       width="1024"
       height="1024"
       x="0"
       y="28.36216" />
    <g
       id="g4281"
       transform="matrix(14.321396,0,0,14.321396,121.24787,149.60287)">
      <g
         id="g4241">
        <path
           id="path4243"
           d="M 52.186,4.632 C 51.84,4.977 51.366,5.19 50.838,5.19 50.313,5.19 49.835,4.977 49.49,4.632 48.906,4.047 48.66,3.285 48.322,3.285 c -0.336,0 -0.607,1.266 -0.607,2.828 0,1.562 -1.343,2.829 -3,2.829 l -34.858,0 c -1.657,0 -3,-1.266 -3,-2.829 C 6.857,4.551 6.41,3.285 5.858,3.285 5.305,3.285 4.884,4.048 4.3,4.632 3.955,4.977 3.479,5.19 2.952,5.19 2.426,5.19 1.95,4.977 1.605,4.632 1.023,4.048 0.815,3.285 0.524,3.285 0.234,3.285 0,4.628 0,6.285 l 0,42 c 0,1.657 0.356,3 0.797,3 0.44,0 0.548,-0.234 0.393,-0.611 -0.092,-0.223 -0.142,-0.466 -0.142,-0.721 0,-1.052 0.853,-1.904 1.904,-1.904 1.053,0 1.905,0.853 1.905,1.904 0,0.255 -0.05,0.498 -0.142,0.721 -0.154,0.377 0.165,0.611 0.868,0.611 0.703,0 1.272,-1.215 1.272,-2.714 0,-1.499 1.343,-2.714 3,-2.714 l 34.858,0 c 1.657,0 3,1.215 3,2.714 0,1.499 0.395,2.714 0.882,2.714 0.487,0 0.632,-0.234 0.478,-0.611 -0.092,-0.223 -0.142,-0.466 -0.142,-0.721 0,-1.052 0.853,-1.904 1.905,-1.904 1.052,0 1.904,0.853 1.904,1.904 0,0.255 -0.051,0.498 -0.143,0.721 -0.154,0.377 0.129,0.611 0.784,0.611 0.656,0 1.188,-1.343 1.188,-3 l 0,-42 c 0,-1.657 -0.41,-3 -0.916,-3 -0.503,0 -0.883,0.763 -1.467,1.347 z M 2.953,45.191 c -1.052,0 -1.904,-0.854 -1.904,-1.905 0,-1.051 0.853,-1.905 1.904,-1.905 1.053,0 1.905,0.854 1.905,1.905 0,1.054 -0.852,1.905 -1.905,1.905 z m 0,-6.667 c -1.052,0 -1.904,-0.854 -1.904,-1.905 0,-1.053 0.853,-1.904 1.904,-1.904 1.053,0 1.905,0.853 1.905,1.904 0,1.053 -0.852,1.905 -1.905,1.905 z m 0,-6.666 c -1.052,0 -1.904,-0.854 -1.904,-1.905 0,-1.053 0.853,-1.904 1.904,-1.904 1.053,0 1.905,0.853 1.905,1.904 0,1.051 -0.852,1.905 -1.905,1.905 z m 0,-6.667 c -1.052,0 -1.904,-0.854 -1.904,-1.905 0,-1.051 0.853,-1.905 1.904,-1.905 1.053,0 1.905,0.853 1.905,1.905 0,1.052 -0.852,1.905 -1.905,1.905 z m 0,-6.667 c -1.052,0 -1.904,-0.854 -1.904,-1.905 0,-1.051 0.853,-1.905 1.904,-1.905 1.053,0 1.905,0.853 1.905,1.905 0,1.052 -0.852,1.905 -1.905,1.905 z m 0,-6.667 c -1.052,0 -1.904,-0.854 -1.904,-1.905 0,-1.053 0.853,-1.905 1.904,-1.905 1.053,0 1.905,0.853 1.905,1.905 0,1.052 -0.852,1.905 -1.905,1.905 z m 42.692,26.095 c 0,1.894 -1.535,3.429 -3.43,3.429 l -29.858,0 c -1.893,0 -3.429,-1.535 -3.429,-3.429 l 0,-21.001 c 0,-1.893 1.535,-3.428 3.429,-3.428 l 29.858,0 c 1.893,0 3.43,1.535 3.43,3.428 l 0,21.001 z m 5.193,7.239 c -1.053,0 -1.904,-0.854 -1.904,-1.905 0,-1.051 0.852,-1.905 1.904,-1.905 1.052,0 1.904,0.854 1.904,1.905 0,1.054 -0.852,1.905 -1.904,1.905 z m 0,-6.667 c -1.053,0 -1.904,-0.854 -1.904,-1.905 0,-1.053 0.852,-1.904 1.904,-1.904 1.052,0 1.904,0.853 1.904,1.904 0,1.053 -0.852,1.905 -1.904,1.905 z m 0,-6.666 c -1.053,0 -1.904,-0.854 -1.904,-1.905 0,-1.053 0.852,-1.904 1.904,-1.904 1.052,0 1.904,0.853 1.904,1.904 0,1.051 -0.852,1.905 -1.904,1.905 z m 0,-6.667 c -1.053,0 -1.904,-0.854 -1.904,-1.905 0,-1.051 0.852,-1.905 1.904,-1.905 1.052,0 1.904,0.853 1.904,1.905 0,1.052 -0.852,1.905 -1.904,1.905 z m 0,-6.667 c -1.053,0 -1.904,-0.854 -1.904,-1.905 0,-1.051 0.852,-1.905 1.904,-1.905 1.052,0 1.904,0.853 1.904,1.905 0,1.052 -0.852,1.905 -1.904,1.905 z m 0,-6.667 c -1.053,0 -1.904,-0.854 -1.904,-1.905 0,-1.053 0.852,-1.905 1.904,-1.905 1.052,0 1.904,0.853 1.904,1.905 0,1.052 -0.852,1.905 -1.904,1.905 z"
           inkscape:connector-curvature="0"
           style="fill:#070707" />
      </g>
      <g
         id="g4245" />
      <g
         id="g4247" />
      <g
         id="g4249" />
      <g
         id="g4251" />
      <g
         id="g4253" />
      <g
         id="g4255" />
      <g
         id="g4257" />
      <g
         id="g4259" />
      <g
         id="g4261" />
      <g
         id="g4263" />
      <g
         id="g4265" />
      <g
         id="g4267" />
      <g
         id="g4269" />
      <g
         id="g4271" />
      <g
         id="g4273" />
    </g>
  </g>
</svg>
